<?xml version="1.0" standalone="no"?>
<!DOCTYPE svg PUBLIC "-//W3C//DTD SVG 20010904//EN"
 "http://www.w3.org/TR/2001/REC-SVG-20010904/DTD/svg10.dtd">
<svg version="1.0" xmlns="http://www.w3.org/2000/svg"
 width="640.000000pt" height="640.000000pt" viewBox="0 0 640.000000 640.000000"
 preserveAspectRatio="xMidYMid meet">

<g transform="translate(0.000000,640.000000) scale(0.100000,-0.100000)"
fill="#000000" stroke="none">
<path d="M2545 4334 c-99 -20 -174 -48 -320 -118 -155 -74 -175 -81 -231 -81
-73 0 -96 15 -92 58 4 43 30 56 59 29 27 -26 39 -28 39 -7 0 42 -43 85 -86 85
-26 0 -72 -29 -79 -50 -16 -51 21 -113 113 -192 62 -53 114 -69 248 -75 92 -5
110 -3 230 30 156 43 233 51 356 37 132 -15 189 -33 216 -69 31 -43 28 -51
-22 -51 -23 0 -202 -13 -397 -30 -195 -16 -430 -34 -524 -40 -93 -6 -208 -15
-255 -20 -47 -6 -106 -12 -132 -14 -26 -2 -59 -11 -72 -20 -14 -9 -30 -16 -36
-16 -18 0 -45 -31 -33 -38 6 -4 14 -21 17 -38 10 -46 52 -106 93 -133 46 -30
76 -26 275 28 80 23 154 41 162 41 16 0 21 -24 16 -80 -4 -57 -133 -143 -262
-175 -39 -10 -79 -28 -93 -41 l-26 -24 23 -32 c13 -18 34 -51 48 -75 30 -51
140 -144 258 -220 48 -30 103 -66 122 -79 49 -32 161 -73 248 -90 102 -19 189
-18 264 6 34 11 66 20 71 20 4 0 7 -56 7 -124 0 -132 6 -148 52 -148 63 0 202
23 210 34 5 7 6 31 3 53 -3 22 -10 94 -15 160 -5 66 -14 179 -19 250 -6 72
-12 255 -14 408 l-5 277 39 0 c22 0 42 1 47 3 10 3 30 -262 37 -503 7 -274 22
-531 30 -553 5 -11 11 -14 19 -9 6 5 25 12 41 15 180 31 190 37 180 107 -4 25
-19 104 -35 175 -16 72 -31 181 -35 245 -4 63 -13 176 -21 250 -7 74 -14 168
-14 208 l0 72 75 0 c41 0 75 -2 75 -5 0 -3 -14 -32 -30 -65 -37 -73 -60 -158
-60 -220 0 -68 27 -160 58 -199 32 -40 142 -84 261 -105 94 -16 119 -29 127
-64 3 -15 7 -33 10 -40 2 -7 8 -62 14 -123 8 -87 7 -129 -5 -209 -17 -120 -14
-135 29 -125 17 4 76 10 131 14 l100 6 -1 45 c-1 25 -7 149 -13 275 -7 127
-16 331 -20 455 -5 124 -12 245 -17 269 l-7 44 54 -6 c30 -4 61 -7 70 -7 38 0
48 -342 24 -812 -2 -43 1 -63 14 -79 17 -21 20 -21 72 -9 30 7 80 26 112 43
l57 30 0 81 c0 114 -16 279 -51 510 -16 109 -29 202 -29 207 0 10 83 10 119 0
20 -5 30 -25 62 -121 21 -63 39 -117 39 -119 0 -2 15 0 34 3 19 4 45 1 60 -5
20 -10 30 -9 51 5 32 21 32 41 0 62 -20 13 -58 67 -110 153 -7 12 10 13 111 7
74 -4 121 -12 126 -19 6 -9 11 -8 18 3 13 20 12 34 -2 97 -14 61 -18 63 -154
84 l-80 12 13 51 c25 97 11 190 -34 226 -34 26 -92 26 -127 -1 -28 -22 -36
-52 -11 -43 29 11 27 -27 -4 -95 -17 -37 -31 -80 -31 -94 0 -26 -2 -27 -57
-27 -32 0 -94 4 -138 10 -44 5 -115 12 -157 16 l-78 6 0 44 c0 69 -30 114 -74
114 -19 0 -36 -45 -36 -95 0 -24 -4 -46 -8 -49 -4 -2 -27 -2 -50 1 -31 4 -42
10 -42 23 0 30 -30 119 -46 135 -29 28 -48 17 -82 -49 -18 -35 -44 -73 -57
-86 -24 -22 -27 -23 -127 -12 -57 6 -114 10 -128 9 -93 -4 -95 -3 -142 84 -38
73 -55 92 -146 168 -117 97 -124 101 -209 130 -59 20 -195 27 -258 15z m-450
-214 c-3 -5 -16 -10 -28 -9 -20 1 -20 2 3 9 14 4 26 8 28 9 2 1 0 -3 -3 -9z
m-58 -16 c-3 -3 -12 -4 -19 -1 -8 3 -5 6 6 6 11 1 17 -2 13 -5z m1795 -353 c4
-3 2 -98 -3 -211 -5 -113 -6 -226 -3 -252 4 -27 4 -48 0 -48 -3 0 -55 24 -115
54 -100 50 -110 58 -125 96 -31 78 -12 175 62 312 l35 67 71 -6 c39 -3 74 -8
78 -12z m-1051 -32 c-6 -40 -8 -42 -56 -55 -138 -35 -294 -113 -358 -178 -53
-54 -66 -90 -68 -180 -1 -71 1 -78 34 -129 20 -30 52 -68 72 -85 19 -18 34
-35 33 -39 -3 -8 -136 -6 -183 4 -55 10 -221 104 -208 117 3 3 17 6 30 6 50 0
130 57 160 115 12 21 16 61 17 140 1 100 -1 115 -26 169 -16 32 -28 62 -28 65
0 4 80 17 178 30 97 12 218 31 267 40 50 10 102 19 116 20 24 1 25 -1 20 -40z
m-1121 -39 c0 -5 -8 -10 -17 -10 -15 0 -16 2 -3 10 19 12 20 12 20 0z m1116
-425 l9 -94 -30 -3 c-66 -7 -245 32 -245 53 0 5 -13 9 -30 9 -38 0 -39 18 -2
55 46 46 127 74 218 75 l71 0 9 -95z"/>
<path d="M3236 2421 c-13 -20 6 -40 36 -39 30 1 68 -29 68 -53 0 -5 -29 -9
-65 -9 -51 0 -65 -3 -65 -15 0 -12 14 -15 70 -15 56 0 70 -3 70 -15 0 -11 -11
-15 -40 -15 -27 0 -47 -7 -60 -20 -25 -25 -25 -41 -1 -71 14 -18 27 -23 56
-21 44 3 71 -14 54 -34 -15 -18 -53 -18 -89 1 -27 14 -30 14 -39 -4 -8 -15 -6
-20 15 -30 42 -19 100 -24 125 -11 31 17 39 29 39 62 0 34 -45 61 -93 56 -23
-2 -32 1 -32 12 0 11 14 16 58 18 l57 3 0 34 c0 24 5 35 15 35 8 0 15 7 15 15
0 9 -9 15 -23 15 -16 0 -28 11 -42 36 -10 20 -30 44 -43 55 -26 20 -77 26 -86
10z"/>
<path d="M2730 2395 c-9 -11 -10 -19 -3 -26 17 -17 48 -6 48 16 0 25 -28 31
-45 10z"/>
<path d="M3740 2310 c-26 -26 -26 -65 2 -84 29 -21 48 -4 29 25 -16 26 -2 44
27 35 30 -10 23 -63 -12 -92 -22 -20 -30 -22 -46 -12 -15 10 -22 10 -31 1 -15
-15 -5 -42 18 -50 10 -3 34 -21 53 -40 32 -29 38 -32 54 -20 17 13 16 15 -12
38 l-29 25 33 32 c47 45 51 102 8 140 -31 27 -68 28 -94 2z"/>
<path d="M1930 2305 c0 -8 5 -15 10 -15 6 0 10 -22 10 -49 0 -67 24 -96 79
-95 l41 1 0 -38 c0 -35 3 -39 26 -39 25 0 25 1 23 62 -2 55 0 63 19 71 42 19
71 -31 32 -55 -27 -17 -26 -48 0 -48 29 0 70 44 70 73 0 43 -31 69 -78 69 -38
-1 -42 2 -42 24 0 23 2 24 80 24 l80 0 0 -110 0 -110 25 0 25 0 0 110 c0 91 3
110 15 110 8 0 15 7 15 15 0 13 -31 15 -215 15 -184 0 -215 -2 -215 -15z m140
-65 c0 -44 -3 -50 -24 -56 -37 -9 -46 2 -46 57 l0 49 35 0 35 0 0 -50z"/>
<path d="M2620 2305 c0 -11 13 -15 53 -15 63 0 80 -10 75 -41 -2 -18 -10 -25
-30 -27 -38 -4 -39 -39 -2 -44 35 -4 53 -31 38 -55 -16 -26 -43 -28 -68 -4
-23 22 -51 15 -41 -11 8 -21 49 -38 90 -38 43 0 75 29 75 68 0 50 49 72 70 32
9 -17 6 -24 -13 -43 -26 -24 -25 -47 2 -47 22 0 61 36 62 58 3 34 -3 47 -27
70 -31 27 -54 28 -88 1 -14 -11 -31 -17 -37 -14 -6 5 -4 11 7 19 12 9 15 22
12 44 l-5 32 79 0 c63 0 78 3 78 15 0 13 -25 15 -165 15 -140 0 -165 -2 -165
-15z"/>
<path d="M3894 2298 c3 -13 6 -69 6 -125 l0 -103 25 0 25 0 0 110 c0 91 3 110
15 110 8 0 15 7 15 15 0 11 -12 15 -46 15 -43 0 -46 -2 -40 -22z"/>
<path d="M4240 2305 c0 -12 15 -15 75 -15 l75 0 0 -35 0 -34 -62 -3 c-57 -3
-63 -5 -66 -26 -6 -43 41 -72 55 -34 9 24 20 30 49 24 22 -4 24 -9 24 -58 0
-52 1 -54 26 -54 l27 0 -5 106 c-4 97 -3 107 14 112 10 2 18 11 18 18 0 11
-24 14 -115 14 -96 0 -115 -3 -115 -15z"/>
<path d="M4785 2265 c-22 -8 -48 -24 -58 -36 -25 -31 -33 -69 -16 -80 24 -15
83 -10 117 11 36 22 72 85 56 99 -18 17 -60 19 -99 6z"/>
<path d="M1514 2256 c-9 -23 18 -68 55 -93 33 -22 82 -29 115 -17 32 12 10 72
-40 105 -36 23 -122 27 -130 5z"/>
</g>
</svg>
